<svg xmlns="http://www.w3.org/2000/svg" viewBox="0 0 32 32" fill="none">
  <!-- Background rounded square -->
  <rect width="32" height="32" rx="7" fill="#0f172a"/>

  <!-- Trachea -->
  <path d="M16 5V11" stroke="#60a5fa" stroke-width="2.5" stroke-linecap="round"/>

  <!-- Carina branches -->
  <path d="M16 11L12 13M16 11L20 13" stroke="#60a5fa" stroke-width="2" stroke-linecap="round"/>

  <!-- Left lung -->
  <path
    d="M12 13C11 13.4 8 14.5 7.5 18C7 21.5 8 25.5 10.5 26.5C11.5 27 13.5 26.5 13.5 25V15C13.5 14 13 12.7 12 13Z"
    fill="#60a5fa"
    opacity="0.9"
  />

  <!-- Right lung -->
  <path
    d="M20 13C21 13.4 24 14.5 24.5 18C25 21.5 24 25.5 21.5 26.5C20.5 27 18.5 26.5 18.5 25V15C18.5 14 19 12.7 20 13Z"
    fill="#60a5fa"
    opacity="0.9"
  />
</svg>
